<?xml version="1.0" encoding="iso-8859-1"?>
<!-- Generator: Adobe Illustrator 19.0.0, SVG Export Plug-In . SVG Version: 6.00 Build 0)  -->
<svg version="1.1" id="Capa_1" xmlns="http://www.w3.org/2000/svg" xmlns:xlink="http://www.w3.org/1999/xlink" x="0px" y="0px"
	 viewBox="0 0 512 512" style="enable-background:new 0 0 512 512;" xml:space="preserve">
<path style="fill:#303C42;" d="M426.667,0h-320C83.135,0,64,19.135,64,42.667v42.667H53.333c-5.896,0-10.667,4.771-10.667,10.667
	c0,5.896,4.771,10.667,10.667,10.667H64V192H53.333c-5.896,0-10.667,4.771-10.667,10.667s4.771,10.667,10.667,10.667H64v85.333
	H53.333c-5.896,0-10.667,4.771-10.667,10.667S47.438,320,53.333,320H64v85.333H53.333c-5.896,0-10.667,4.771-10.667,10.667
	c0,5.896,4.771,10.667,10.667,10.667H64v42.667C64,492.865,83.135,512,106.667,512h320c23.531,0,42.667-19.135,42.667-42.667V42.667
	C469.333,19.135,450.198,0,426.667,0z"/>
<path style="fill:#42A5F5;" d="M448,469.333c0,11.76-9.573,21.333-21.333,21.333h-320c-11.76,0-21.333-9.573-21.333-21.333v-42.667
	H96c5.896,0,10.667-4.771,10.667-10.667c0-5.896-4.771-10.667-10.667-10.667H85.333V320H96c5.896,0,10.667-4.771,10.667-10.667
	S101.896,298.667,96,298.667H85.333v-85.333H96c5.896,0,10.667-4.771,10.667-10.667S101.896,192,96,192H85.333v-85.333H96
	c5.896,0,10.667-4.771,10.667-10.667c0-5.896-4.771-10.667-10.667-10.667H85.333V42.667c0-11.76,9.573-21.333,21.333-21.333h320
	c11.76,0,21.333,9.573,21.333,21.333V469.333z"/>
<circle style="fill:#303C42;" cx="266.667" cy="202.667" r="53.333"/>
<circle style="fill:#FFFFFF;" cx="266.667" cy="202.667" r="32"/>
<path style="opacity:0.1;enable-background:new    ;" d="M287.742,178.777c0.069,0.858,0.258,1.681,0.258,2.556
	c0,17.646-14.354,32-32,32c-8.105,0-15.431-3.126-21.076-8.111c1.328,16.435,14.971,29.444,31.742,29.444c17.646,0,32-14.354,32-32
	C298.667,193.126,294.385,184.645,287.742,178.777z"/>
<path style="fill:#303C42;" d="M339.625,288.677c-17.031-10.042-43.51-22.01-72.958-22.01c-29.448,0-55.927,11.969-72.958,22.01
	c-14.219,8.385-23.042,24.667-23.042,42.49V338c0,13.604,10.25,24.667,22.854,24.667h146.292c12.604,0,22.854-11.063,22.854-24.667
	v-6.833C362.667,313.344,353.844,297.063,339.625,288.677z"/>
<linearGradient id="SVGID_1_" gradientUnits="userSpaceOnUse" x1="-35.7447" y1="635.0557" x2="-25.2317" y2="624.5377" gradientTransform="matrix(21.3333 0 0 -21.3333 996.3334 13791.667)">
	<stop  offset="0" style="stop-color:#000000;stop-opacity:0.1"/>
	<stop  offset="1" style="stop-color:#000000;stop-opacity:0"/>
</linearGradient>
<polygon style="fill:url(#SVGID_1_);" points="236.745,246.777 236.736,246.786 236.826,246.844 "/>
<linearGradient id="SVGCleanerId_0_2_" gradientUnits="userSpaceOnUse" x1="-35.9684" y1="634.834" x2="-25.4566" y2="624.3172" gradientTransform="matrix(21.3333 0 0 -21.3333 996.3334 13791.667)">
	<stop  offset="0" style="stop-color:#000000;stop-opacity:0.1"/>
	<stop  offset="1" style="stop-color:#000000;stop-opacity:0"/>
</linearGradient>
<path id="SVGCleanerId_0" style="fill:url(#SVGCleanerId_0_2_);" d="M308.254,169.332l-0.155,0.168
	c7.329,9.135,11.901,20.572,11.901,33.167C320,232.073,296.073,256,266.667,256c-10.991,0-21.212-3.352-29.71-9.073l31.09,19.74
	l-0.121,0.118c28.928,0.344,54.918,11.997,71.699,21.892c14.219,8.385,23.042,24.667,23.042,42.49V338
	c0,13.604-10.25,24.667-22.854,24.667H193.521c-6.253,0-11.909-2.743-16.039-7.148l-0.016,0.016l135.133,135.133h114.068
	c11.76,0,21.333-9.573,21.333-21.333V309.078L308.254,169.332z"/>
<linearGradient id="SVGID_2_" gradientUnits="userSpaceOnUse" x1="-35.9681" y1="634.915" x2="-46.7031" y2="634.912" gradientTransform="matrix(21.3333 0 0 -21.3333 996.3334 13791.667)">
	<stop  offset="0" style="stop-color:#000000;stop-opacity:0.1"/>
	<stop  offset="1" style="stop-color:#000000;stop-opacity:0"/>
</linearGradient>
<polygon style="fill:url(#SVGID_2_);" points="236.745,246.777 236.736,246.786 236.826,246.844 "/>
<g>
	
		<linearGradient id="SVGCleanerId_0_3_" gradientUnits="userSpaceOnUse" x1="-35.9684" y1="634.834" x2="-25.4566" y2="624.3172" gradientTransform="matrix(21.3333 0 0 -21.3333 996.3334 13791.667)">
		<stop  offset="0" style="stop-color:#000000;stop-opacity:0.1"/>
		<stop  offset="1" style="stop-color:#000000;stop-opacity:0"/>
	</linearGradient>
	<path id="SVGCleanerId_0_1_" style="fill:url(#SVGCleanerId_0_3_);" d="M308.254,169.332l-0.155,0.168
		c7.329,9.135,11.901,20.572,11.901,33.167C320,232.073,296.073,256,266.667,256c-10.991,0-21.212-3.352-29.71-9.073l31.09,19.74
		l-0.121,0.118c28.928,0.344,54.918,11.997,71.699,21.892c14.219,8.385,23.042,24.667,23.042,42.49V338
		c0,13.604-10.25,24.667-22.854,24.667H193.521c-6.253,0-11.909-2.743-16.039-7.148l-0.016,0.016l135.133,135.133h114.068
		c11.76,0,21.333-9.573,21.333-21.333V309.078L308.254,169.332z"/>
</g>
<path style="fill:#FFFFFF;" d="M341.333,338c0,2.219-1.26,3.333-1.521,3.333H193.521c-0.26,0-1.521-1.115-1.521-3.333v-6.833
	c0-10.156,4.927-19.615,12.542-24.115c14.74-8.688,37.49-19.052,62.125-19.052c24.635,0,47.385,10.365,62.125,19.052
	c7.615,4.5,12.542,13.958,12.542,24.115V338z"/>
<path style="opacity:0.1;enable-background:new    ;" d="M328.792,307.052c-14.74-8.688-37.49-19.052-62.125-19.052
	c-5.466,0-10.786,0.668-16,1.557c18.284,3.117,34.656,10.734,46.125,17.495c7.615,4.5,12.542,13.958,12.542,24.115V338
	c0,2.219-1.26,3.333-1.521,3.333h32c0.26,0,1.521-1.115,1.521-3.333v-6.833C341.333,321.01,336.406,311.552,328.792,307.052z"/>
<linearGradient id="SVGID_3_" gradientUnits="userSpaceOnUse" x1="-46.0064" y1="639.9885" x2="-22.3999" y2="628.9802" gradientTransform="matrix(21.3333 0 0 -21.3333 996.3334 13791.667)">
	<stop  offset="0" style="stop-color:#FFFFFF;stop-opacity:0.2"/>
	<stop  offset="1" style="stop-color:#FFFFFF;stop-opacity:0"/>
</linearGradient>
<path style="fill:url(#SVGID_3_);" d="M426.667,0h-320C83.135,0,64,19.135,64,42.667v42.667H53.333
	c-5.896,0-10.667,4.771-10.667,10.667c0,5.896,4.771,10.667,10.667,10.667H64V192H53.333c-5.896,0-10.667,4.771-10.667,10.667
	s4.771,10.667,10.667,10.667H64v85.333H53.333c-5.896,0-10.667,4.771-10.667,10.667S47.438,320,53.333,320H64v85.333H53.333
	c-5.896,0-10.667,4.771-10.667,10.667c0,5.896,4.771,10.667,10.667,10.667H64v42.667C64,492.865,83.135,512,106.667,512h320
	c23.531,0,42.667-19.135,42.667-42.667V42.667C469.333,19.135,450.198,0,426.667,0z"/>
<g>
</g>
<g>
</g>
<g>
</g>
<g>
</g>
<g>
</g>
<g>
</g>
<g>
</g>
<g>
</g>
<g>
</g>
<g>
</g>
<g>
</g>
<g>
</g>
<g>
</g>
<g>
</g>
<g>
</g>
</svg>
